<?xml version="1.0" standalone="no"?>
<!DOCTYPE svg PUBLIC "-//W3C//DTD SVG 20010904//EN"
 "http://www.w3.org/TR/2001/REC-SVG-20010904/DTD/svg10.dtd">
<svg version="1.0" xmlns="http://www.w3.org/2000/svg"
 width="260.000000pt" height="260.000000pt" viewBox="0 0 260.000000 260.000000"
 preserveAspectRatio="xMidYMid meet">
<metadata>
Created by potrace 1.14, written by Peter Selinger 2001-2017
</metadata>
<g transform="translate(0.000000,260.000000) scale(0.100000,-0.100000)"
fill="#000000" stroke="none">
<path d="M1165 2563 c-537 -64 -973 -442 -1106 -960 -28 -111 -38 -210 -34
-348 6 -180 50 -356 131 -517 32 -64 98 -174 114 -188 3 -3 25 -30 50 -60 325
-398 891 -557 1390 -390 362 120 664 416 794 779 53 146 69 243 69 411 1 223
-37 391 -130 575 -102 202 -294 410 -478 518 -136 79 -309 145 -431 162 -21 3
-46 9 -54 12 -17 6 -270 11 -315 6z"/>
</g>
</svg>
