<?xml version="1.0" standalone="no"?>
<!DOCTYPE svg PUBLIC "-//W3C//DTD SVG 20010904//EN"
 "http://www.w3.org/TR/2001/REC-SVG-20010904/DTD/svg10.dtd">
<svg version="1.0" xmlns="http://www.w3.org/2000/svg"
 width="260.000000pt" height="260.000000pt" viewBox="0 0 260.000000 260.000000"
 preserveAspectRatio="xMidYMid meet">
<metadata>
Created by potrace 1.14, written by Peter Selinger 2001-2017
</metadata>
<g transform="translate(0.000000,260.000000) scale(0.100000,-0.100000)"
fill="#000000" stroke="none">
<path d="M267 2453 c4 -9 0 -11 -13 -6 -12 4 -15 3 -10 -5 7 -11 -6 -17 -28
-13 -5 1 -6 -5 -3 -12 3 -9 -4 -19 -20 -26 -15 -7 -23 -17 -20 -26 4 -9 0 -12
-14 -10 -12 2 -17 0 -13 -7 4 -5 0 -14 -7 -19 -12 -8 -12 -11 1 -19 10 -6 11
-10 3 -10 -15 0 -13 -50 2 -50 5 0 5 -4 -2 -8 -14 -9 -13 -52 2 -52 7 0 6 -3
-1 -8 -14 -9 -13 -224 1 -234 6 -5 6 -8 -2 -8 -15 0 -13 -50 2 -50 5 0 5 -4
-2 -8 -14 -9 -13 -52 2 -52 5 0 4 -4 -3 -9 -15 -9 -13 -42 3 -53 6 -5 5 -8 -2
-8 -15 0 -13 -50 2 -50 6 0 6 -3 -1 -8 -14 -9 -13 -224 1 -234 6 -5 6 -8 -2
-8 -15 0 -13 -50 2 -50 5 0 4 -4 -3 -9 -15 -9 -13 -42 3 -53 6 -5 5 -8 -2 -8
-15 0 -13 -50 2 -50 5 0 5 -4 -2 -8 -14 -9 -13 -52 2 -52 7 0 6 -3 -1 -8 -14
-9 -13 -224 1 -234 6 -5 6 -8 -2 -8 -15 0 -13 -50 2 -50 5 0 4 -4 -3 -9 -15
-9 -13 -42 3 -53 6 -5 5 -8 -2 -8 -15 0 -13 -50 2 -50 5 0 5 -4 -2 -8 -14 -9
-13 -52 2 -52 7 0 6 -3 -1 -8 -14 -9 -13 -224 1 -234 6 -5 6 -8 -2 -8 -15 0
-13 -50 2 -50 5 0 4 -4 -3 -9 -15 -9 -13 -42 3 -53 6 -5 5 -8 -2 -8 -15 0 -13
-50 2 -50 5 0 4 -4 -3 -9 -15 -9 -13 -42 3 -53 6 -5 5 -8 -2 -8 -7 0 -13 -7
-13 -16 0 -8 4 -12 10 -9 6 4 7 -1 3 -11 -5 -14 -3 -16 11 -11 14 6 17 3 12
-9 -5 -12 -2 -15 10 -10 15 6 15 4 3 -10 -13 -16 -12 -16 10 -5 13 7 21 8 17
3 -3 -6 6 -20 21 -32 27 -21 14 -18 -18 4 -8 6 -3 0 12 -14 28 -26 87 -41 73
-18 -5 7 -3 8 7 2 21 -13 81 -15 73 -2 -5 7 -2 8 7 2 21 -14 159 -14 159 0 0
6 5 4 10 -4 9 -13 11 -13 20 0 5 8 10 10 10 4 0 -13 149 -13 169 0 9 6 12 5 8
-1 -4 -6 14 -10 48 -10 32 1 51 5 48 10 -4 6 -1 7 8 1 21 -14 159 -14 159 0 0
6 5 4 10 -4 9 -13 11 -13 20 0 5 8 10 10 10 4 0 -13 149 -13 169 0 9 6 12 5 8
-1 -4 -6 14 -10 48 -10 32 1 51 5 48 10 -4 6 -1 7 8 1 21 -14 159 -14 159 0 0
6 5 4 10 -4 9 -13 11 -13 20 0 5 8 10 10 10 4 0 -13 149 -13 169 0 9 6 12 5 8
-1 -4 -6 14 -10 48 -10 32 1 51 5 48 10 -4 6 -1 7 8 1 21 -14 159 -14 159 0 0
6 5 4 10 -4 9 -13 11 -13 20 0 5 8 10 10 10 4 0 -13 149 -13 169 0 9 6 12 5 8
-1 -8 -13 92 -12 112 1 10 6 12 5 7 -2 -5 -8 0 -11 16 -9 13 2 23 10 23 18 0
8 8 13 19 11 11 -2 15 1 11 7 -3 6 -1 11 5 11 6 0 8 5 4 12 -5 9 -2 8 9 -1 15
-12 17 -12 12 1 -4 9 3 19 17 27 13 6 15 9 5 6 -10 -3 -15 -1 -12 5 3 6 13 10
21 10 16 0 16 -1 19 68 1 32 -2 52 -9 52 -8 0 -8 3 0 8 13 9 13 55 0 64 -8 5
-7 8 0 8 15 0 14 80 0 80 -8 0 -8 3 0 8 5 4 10 18 10 32 0 14 -5 28 -10 32 -8
5 -7 8 0 8 15 0 14 80 0 80 -8 0 -8 3 0 8 13 9 13 55 0 64 -8 5 -7 8 0 8 15 0
14 80 0 80 -8 0 -8 3 0 8 5 4 10 18 10 32 0 14 -5 28 -10 32 -8 5 -7 8 0 8 15
0 14 80 0 80 -8 0 -8 3 0 8 5 4 10 18 10 32 0 14 -5 28 -10 32 -8 5 -7 8 0 8
15 0 14 80 0 80 -8 0 -8 3 0 8 5 4 10 18 10 32 0 14 -5 28 -10 32 -8 5 -7 8 0
8 15 0 14 80 0 80 -8 0 -8 3 0 8 5 4 10 18 10 32 0 14 -5 28 -10 32 -8 5 -7 8
0 8 15 0 14 80 0 80 -8 0 -8 3 0 8 13 9 13 55 0 64 -8 5 -7 8 0 8 15 0 14 80
0 80 -8 0 -8 3 0 8 5 4 10 18 10 32 0 14 -5 28 -10 32 -8 5 -7 8 0 8 15 0 14
80 0 80 -8 0 -8 3 0 8 13 9 13 55 0 64 -8 5 -7 8 0 8 15 0 14 80 0 80 -8 0 -8
3 0 8 5 4 10 18 10 32 0 14 -5 28 -10 32 -8 5 -7 8 0 8 15 0 14 80 0 80 -8 0
-8 3 0 8 5 4 10 18 10 32 0 14 -5 28 -10 32 -8 5 -7 8 0 8 15 0 14 80 0 80 -8
0 -8 3 -1 8 13 9 15 62 3 62 -5 0 -6 5 -3 10 3 6 -1 10 -10 10 -9 0 -13 5 -10
10 3 6 -1 10 -9 10 -9 0 -16 6 -16 14 0 8 -9 18 -20 21 -11 3 -20 12 -20 20 0
12 -19 23 -45 26 -5 0 -15 5 -22 10 -7 6 -13 6 -17 0 -8 -13 -78 -11 -95 2
-11 9 -13 9 -8 0 4 -6 3 -14 -3 -18 -5 -3 -10 -1 -10 5 0 6 -5 8 -10 5 -6 -4
-7 -11 -4 -17 4 -7 2 -8 -5 -4 -6 4 -9 12 -6 17 4 5 3 9 -2 10 -4 0 -16 2 -26
4 -9 2 -15 -1 -11 -6 3 -5 11 -6 17 -3 7 4 9 3 4 -1 -9 -11 -48 -14 -42 -4 3
4 -2 10 -11 13 -8 3 -12 2 -9 -3 3 -5 1 -12 -5 -16 -5 -3 -10 -1 -10 6 0 8 -5
7 -17 -2 -11 -10 -14 -10 -9 -1 4 6 4 12 -1 13 -4 0 -16 2 -26 4 -9 2 -15 -1
-11 -6 3 -5 11 -6 17 -3 7 4 9 3 4 -1 -9 -11 -48 -14 -42 -4 3 4 -2 10 -11 13
-8 3 -12 2 -9 -3 3 -5 1 -12 -5 -16 -5 -3 -10 -1 -10 5 0 6 -4 9 -9 5 -5 -3
-13 -1 -16 5 -5 8 -11 8 -20 0 -13 -11 -49 -9 -61 3 -4 4 -13 2 -21 -5 -10 -8
-20 -8 -40 1 -22 10 -24 10 -15 -1 8 -11 7 -14 -8 -14 -10 0 -17 3 -14 7 2 4
-3 10 -12 13 -8 3 -12 2 -9 -3 3 -5 1 -12 -5 -16 -5 -3 -10 -1 -10 6 0 8 -5 7
-17 -2 -11 -10 -14 -10 -9 -1 4 6 4 12 -1 13 -4 0 -16 2 -26 4 -9 2 -15 -1
-11 -6 3 -5 10 -6 16 -3 7 4 8 2 4 -5 -4 -6 -12 -9 -17 -5 -5 3 -18 0 -27 -8
-15 -11 -16 -11 -4 3 10 14 10 18 -3 23 -9 3 -13 2 -10 -3 3 -5 1 -12 -5 -16
-5 -3 -10 -1 -10 6 0 8 -5 7 -17 -2 -11 -10 -14 -10 -9 -1 4 6 4 12 -1 13 -4
0 -16 2 -26 4 -9 2 -15 -1 -11 -6 3 -5 11 -6 17 -3 7 4 9 3 4 -1 -9 -11 -48
-14 -42 -4 3 4 -2 10 -11 13 -8 3 -12 2 -9 -3 3 -5 1 -12 -5 -16 -5 -3 -10 -1
-10 5 0 6 -4 9 -9 5 -5 -3 -13 -1 -16 5 -5 8 -11 8 -20 0 -13 -11 -42 -10 -62
3 -6 4 -14 3 -17 -2 -8 -13 -78 -11 -95 2 -11 9 -13 9 -8 0 4 -6 3 -14 -3 -18
-5 -3 -10 -1 -10 5 0 6 -5 8 -10 5 -6 -4 -7 -11 -4 -17 4 -7 2 -8 -5 -4 -6 4
-9 12 -6 17 4 5 3 9 -2 10 -4 0 -16 2 -26 4 -9 2 -15 -1 -11 -6 3 -5 11 -6 17
-3 7 4 9 3 4 -1 -9 -11 -48 -14 -42 -4 3 4 -2 10 -11 13 -8 3 -12 2 -9 -3 3
-5 1 -12 -5 -16 -5 -3 -10 -1 -10 6 0 8 -5 7 -17 -2 -11 -10 -14 -10 -9 -1 4
6 4 12 -1 13 -4 0 -16 2 -26 4 -9 2 -15 -1 -11 -6 3 -5 11 -6 17 -3 7 4 9 3 4
-1 -9 -11 -48 -14 -42 -4 3 4 -2 10 -11 13 -8 3 -12 2 -9 -3 3 -5 1 -12 -5
-16 -5 -3 -10 -1 -10 5 0 6 -4 9 -9 5 -5 -3 -13 -1 -16 5 -5 8 -11 8 -20 0
-13 -11 -49 -9 -61 3 -4 4 -13 2 -21 -5 -10 -8 -20 -8 -40 1 -22 10 -24 10
-15 -1 8 -11 7 -14 -8 -14 -10 0 -17 3 -14 7 2 4 -3 10 -12 13 -8 3 -12 2 -9
-3 3 -5 1 -12 -5 -16 -5 -3 -10 -1 -10 6 0 8 -5 7 -17 -2 -11 -10 -14 -10 -9
-1 4 6 4 12 -1 13 -4 0 -16 2 -26 4 -9 2 -15 -1 -11 -6 3 -5 10 -6 16 -3 7 4
8 2 4 -5 -4 -6 -12 -9 -17 -5 -5 3 -18 0 -27 -8 -15 -11 -16 -11 -4 3 10 14
10 18 -3 23 -9 3 -13 2 -10 -3 3 -5 1 -12 -5 -16 -5 -3 -10 -1 -10 6 0 8 -5 7
-17 -2 -11 -10 -14 -10 -9 -1 4 6 4 12 -1 13 -4 0 -16 2 -26 4 -9 2 -15 -1
-11 -6 3 -5 11 -6 17 -3 7 4 9 3 4 -1 -9 -11 -48 -14 -42 -4 3 4 -2 10 -11 13
-8 3 -12 2 -9 -3 3 -5 1 -12 -5 -16 -5 -3 -10 -1 -10 5 0 6 -4 9 -9 5 -5 -3
-13 -1 -16 5 -5 8 -11 8 -20 0 -13 -11 -42 -10 -62 3 -6 4 -14 3 -17 -2 -3 -5
-24 -9 -46 -9 -22 -1 -38 3 -36 7 3 4 -1 8 -8 8 -8 0 -12 -6 -9 -14z"/>
</g>
</svg>
